HIERARCHY
ROOT Hips
{
	OFFSET 0.000000 0.000000 0.000000
	CHANNELS 6 Xposition Yposition Zposition Xrotation Yrotation Zrotation
	JOINT LeftUpLeg_virtual
	{
		OFFSET 0.000000 0.000000 0.000000
		CHANNELS 3 Xrotation Yrotation Zrotation
		JOINT LeftUpLeg
		{
			OFFSET 11.394100 -6.187798 -0.413800
			CHANNELS 3 Xrotation Yrotation Zrotation
			JOINT LeftLeg
			{
				OFFSET 0.430247 -32.302673 3.732800
				CHANNELS 3 Xrotation Yrotation Zrotation
				JOINT LeftFoot
				{
					OFFSET -0.430247 -48.264931 -6.423300
					CHANNELS 3 Xrotation Yrotation Zrotation
					JOINT LeftToeBase
					{
						OFFSET 4.230900 -16.068199 23.438400
						CHANNELS 3 Xrotation Yrotation Zrotation
						JOINT LeftToe_End
						{
							OFFSET 4.510700 0.695400 19.974600
							CHANNELS 3 Xrotation Yrotation Zrotation
							End Site
							{
								OFFSET 0 0 0
							}
						}
					}
				}
			}
		}
	}
	JOINT RightUpLeg_virtual
	{
		OFFSET 0.000000 0.000000 0.000000
		CHANNELS 3 Xrotation Yrotation Zrotation
		JOINT RightUpLeg
		{
			OFFSET -11.333700 -6.187798 -0.413800
			CHANNELS 3 Xrotation Yrotation Zrotation
			JOINT RightLeg
			{
				OFFSET -0.430392 -32.302628 3.733000
				CHANNELS 3 Xrotation Yrotation Zrotation
				JOINT RightFoot
				{
					OFFSET 0.430392 -48.264973 -6.423500
					CHANNELS 3 Xrotation Yrotation Zrotation
					JOINT RightToeBase
					{
						OFFSET -4.230900 -16.068199 23.438400
						CHANNELS 3 Xrotation Yrotation Zrotation
						JOINT RightToe_End
						{
							OFFSET -4.510700 0.695400 19.974600
							CHANNELS 3 Xrotation Yrotation Zrotation
							End Site
							{
								OFFSET 0 0 0
							}
						}
					}
				}
			}
		}
	}
	JOINT Spine_virtual
	{
		OFFSET 0.000000 0.000000 0.000000
		CHANNELS 3 Xrotation Yrotation Zrotation
		JOINT Spine
		{
			OFFSET -0.002400 12.777504 0.315300
			CHANNELS 3 Xrotation Yrotation Zrotation
			JOINT Spine1
			{
				OFFSET -0.002067 5.816869 0.032633
				CHANNELS 3 Xrotation Yrotation Zrotation
				JOINT Spine1_split
				{
					OFFSET -0.002067 5.816869 0.032633
					CHANNELS 3 Xrotation Yrotation Zrotation
					JOINT Spine2
					{
						OFFSET -0.002067 5.816869 0.032633
						CHANNELS 3 Xrotation Yrotation Zrotation
						JOINT Neck_virtual
						{
							OFFSET 0.000000 0.000000 0.000000
							CHANNELS 3 Xrotation Yrotation Zrotation
							JOINT Neck
							{
								OFFSET -0.003700 21.199493 -0.826900
								CHANNELS 3 Xrotation Yrotation Zrotation
								JOINT Head
								{
									OFFSET 0.000000 20.442200 4.834800
									CHANNELS 3 Xrotation Yrotation Zrotation
									JOINT HeadTop_End
									{
										OFFSET 0.000000 34.668396 4.968400
										CHANNELS 3 Xrotation Yrotation Zrotation
										End Site
										{
											OFFSET 0 0 0
										}
									}
								}
							}
						}
						JOINT LeftShoulder_virtual
						{
							OFFSET 0.000000 0.000000 0.000000
							CHANNELS 3 Xrotation Yrotation Zrotation
							JOINT LeftShoulder
							{
								OFFSET 3.288150 8.794197 -1.372250
								CHANNELS 3 Xrotation Yrotation Zrotation
								JOINT LeftShoulder_split
								{
									OFFSET 3.288150 8.794197 -1.372250
									CHANNELS 3 Xrotation Yrotation Zrotation
									JOINT LeftArm
									{
										OFFSET 11.953299 -2.279007 -0.146200
										CHANNELS 3 Xrotation Yrotation Zrotation
										JOINT LeftForeArm
										{
											OFFSET 18.448900 0.000000 0.000000
											CHANNELS 3 Xrotation Yrotation Zrotation
											JOINT LeftHand
											{
												OFFSET 29.527798 0.000000 0.000000
												CHANNELS 3 Xrotation Yrotation Zrotation
												End Site
												{
													OFFSET 0 0 0
												}
											}
										}
									}
								}
							}
						}
						JOINT RightShoulder_virtual
						{
							OFFSET 0.000000 0.000000 0.000000
							CHANNELS 3 Xrotation Yrotation Zrotation
							JOINT RightShoulder
							{
								OFFSET -3.249400 8.794197 -1.372250
								CHANNELS 3 Xrotation Yrotation Zrotation
								JOINT RightShoulder_split
								{
									OFFSET -3.249400 8.794197 -1.372250
									CHANNELS 3 Xrotation Yrotation Zrotation
									JOINT RightArm
									{
										OFFSET -11.953299 -2.279007 -0.146200
										CHANNELS 3 Xrotation Yrotation Zrotation
										JOINT RightForeArm
										{
											OFFSET -18.448900 0.000000 0.000000
											CHANNELS 3 Xrotation Yrotation Zrotation
											JOINT RightHand
											{
												OFFSET -29.527802 0.000000 0.000000
												CHANNELS 3 Xrotation Yrotation Zrotation
												End Site
												{
													OFFSET 0 0 0
												}
											}
										}
									}
								}
							}
						}
					}
				}
			}
		}
	}
}
MOTION
Frames: 5
Frame Time: 0.03333333
2.018216 94.851379 -2.893669 0.000000 0.000000 0.000000 3.349062 -9.723012 -1.480097 -36.770938 4.778977 8.039180 27.371447 2.745342 3.268499 3.550037 -0.796124 -4.118955 1.974102 -1.115937 -1.880817 0.000000 0.000000 0.000000 3.222821 -10.451836 -1.481908 -14.791714 -12.127664 -13.822708 26.224440 -10.663719 1.168987 -13.384167 -3.459009 13.472472 -0.719978 0.190529 0.894368 0.000000 0.000000 0.000000 4.327324 -9.332260 -1.946084 21.295229 4.788806 1.881765 1.875498 1.975355 -0.431736 0.530443 -0.310366 0.256884 0.000000 0.000000 0.000000 2.676247 2.045160 -0.171739 -5.454819 16.370995 1.497025 7.714640 48.316768 -21.541799 0.000000 0.000000 0.000000 2.918068 2.345047 -0.430618 2.263020 -35.007445 5.887256 0.420610 0.496837 -4.655898 -25.075651 -15.826144 -66.627061 -0.275373 -45.729185 -7.867011 0.000000 0.000000 0.000000 3.429256 2.089709 -0.431560 8.556552 21.362853 -10.193085 -1.215228 3.502429 0.365479 -42.788663 14.657924 82.142013 -0.673418 53.100780 2.849592 0.000000 0.000000 0.000000 
2.159268 94.864372 -2.294014 0.000000 0.000000 0.000000 3.375717 -9.004721 -1.545604 -36.866195 4.916339 7.652662 27.723781 2.392606 3.311584 3.081207 -0.750083 -3.851476 1.899694 -1.138817 -1.832978 0.000000 0.000000 0.000000 3.237576 -9.791302 -1.546868 -13.878495 -12.061743 -13.899696 25.637001 -11.301790 1.171493 -13.410457 -3.540521 14.036351 -0.724942 0.138583 0.970568 0.000000 0.000000 0.000000 4.409906 -8.628980 -1.996148 21.102373 4.834612 1.460039 1.828288 2.071177 -0.615362 0.530662 -0.298314 0.228900 0.000000 0.000000 0.000000 2.645658 2.139657 -0.386838 -5.505865 16.236082 1.804209 6.768791 47.968661 -20.622424 0.000000 0.000000 0.000000 2.929824 2.429539 -0.687378 2.123877 -35.560280 5.845837 0.184486 0.442739 -4.956440 -24.697740 -15.749233 -66.462276 -0.218904 -45.513635 -6.748366 0.000000 0.000000 0.000000 3.447701 2.227415 -0.670779 8.403551 20.486980 -9.927624 -0.966977 3.632605 0.337829 -43.117857 15.222439 83.097181 -0.684700 52.551544 2.436896 0.000000 0.000000 0.000000 
2.276014 94.870155 -1.706848 0.000000 0.000000 0.000000 3.421130 -8.376175 -1.557064 -36.975984 4.994392 7.279708 28.132921 2.119806 3.352194 2.629674 -0.699270 -3.632910 1.827640 -1.156765 -1.777845 0.000000 0.000000 0.000000 3.266121 -9.238192 -1.552763 -13.091425 -11.952641 -13.991135 25.149921 -11.854413 1.141472 -13.476978 -3.616831 14.565167 -0.739555 0.094768 1.046741 0.000000 0.000000 0.000000 4.518165 -8.032985 -1.981856 20.908667 4.826319 1.007490 1.790017 2.147510 -0.793461 0.539450 -0.280538 0.221011 0.000000 0.000000 0.000000 2.625858 2.217069 -0.600556 -5.606848 15.993376 2.148932 5.552108 47.436740 -19.399045 0.000000 0.000000 0.000000 2.940212 2.496876 -0.937368 1.982513 -36.076888 5.807706 -0.011607 0.422624 -5.190122 -24.118218 -15.827932 -66.247842 -0.201311 -45.462740 -5.670257 0.000000 0.000000 0.000000 3.460228 2.345405 -0.897439 8.295109 19.860843 -9.736625 -0.801757 3.717506 0.364008 -43.349158 15.574409 83.913621 -0.773402 52.182563 2.173432 0.000000 0.000000 0.000000 
2.370994 94.866066 -1.152988 0.000000 0.000000 0.000000 3.494366 -7.837878 -1.525204 -37.108496 4.989273 6.914825 28.595574 1.915659 3.396507 2.205324 -0.650229 -3.469420 1.780624 -1.169155 -1.727522 0.000000 0.000000 0.000000 3.319162 -8.774964 -1.512359 -12.421759 -11.809196 -14.087102 24.742137 -12.330024 1.081854 -13.610170 -3.695844 15.036436 -0.736587 0.063653 1.117881 0.000000 0.000000 0.000000 4.654488 -7.544255 -1.926063 20.721522 4.756753 0.532440 1.757157 2.201360 -0.961925 0.521511 -0.236461 0.229779 0.000000 0.000000 0.000000 2.606521 2.274441 -0.810216 -5.767686 15.669760 2.547458 4.181803 46.797950 -17.919058 0.000000 0.000000 0.000000 2.948695 2.544983 -1.171206 1.857364 -36.582637 5.816225 -0.164628 0.442807 -5.358584 -23.367911 -16.043937 -66.008068 -0.220519 -45.557823 -4.648580 0.000000 0.000000 0.000000 3.467803 2.440061 -1.104001 8.223170 19.477825 -9.612858 -0.698633 3.762562 0.398713 -43.442469 15.703259 84.557100 -0.901871 51.931007 2.021627 0.000000 0.000000 0.000000 
2.455557 94.856483 -0.623924 0.000000 0.000000 0.000000 3.606812 -7.391156 -1.463867 -37.260553 4.893562 6.554879 29.091985 1.774180 3.449393 1.792663 -0.602690 -3.356605 1.776654 -1.175478 -1.694296 0.000000 0.000000 0.000000 3.403891 -8.394258 -1.439556 -11.864638 -11.645341 -14.177956 24.406718 -12.740958 1.002356 -13.788429 -3.781045 15.442061 -0.699266 0.049419 1.174756 0.000000 0.000000 0.000000 4.813395 -7.174068 -1.845690 20.551561 4.629042 0.048411 1.730763 2.229181 -1.117293 0.499292 -0.169982 0.244227 0.000000 0.000000 0.000000 2.584291 2.310691 -1.011176 -5.990572 15.295049 3.022459 2.768276 46.131388 -16.258379 0.000000 0.000000 0.000000 2.956108 2.568069 -1.383168 1.756386 -37.103316 5.884428 -0.288683 0.561044 -5.480542 -22.506570 -16.366395 -65.779742 -0.273617 -45.738423 -3.685877 0.000000 0.000000 0.000000 3.471222 2.508559 -1.290816 8.182129 19.311335 -9.556318 -0.650927 3.782146 0.416247 -43.406289 15.608155 85.005543 -1.043080 51.778851 1.945315 0.000000 0.000000 0.000000 
